<svg width="50" height="50" viewBox="0 0 50 50" fill="none" xmlns="http://www.w3.org/2000/svg">
<rect width="50" height="50" rx="25" fill="#D7FD44"/>
<path d="M34.5691 20.5235C34.5794 20.3904 34.5623 20.26 34.5191 20.1407C34.4758 20.0213 34.4073 19.9156 34.3179 19.8303C34.2286 19.7449 34.1203 19.6818 34 19.645C33.8797 19.6082 33.75 19.5985 33.6192 19.6164C33.4885 19.6344 33.3594 19.6796 33.2404 19.7493C33.1214 19.819 33.015 19.9116 32.9279 20.0212C32.8409 20.1307 32.7751 20.2549 32.7349 20.3857C32.6946 20.5165 32.6807 20.6511 32.6941 20.781L32.8041 30.4429L16.8028 16.6566C16.6211 16.5182 16.3852 16.4631 16.1437 16.5027C15.9021 16.5424 15.6734 16.6737 15.5045 16.8697C15.3357 17.0657 15.2396 17.3114 15.2361 17.5561C15.2326 17.8009 15.322 18.0261 15.4858 18.1853L31.4871 31.9716L21.9131 33.2788C21.6663 33.3184 21.4324 33.4523 21.2599 33.6525C21.0874 33.8527 20.9896 34.1038 20.9869 34.3538C20.9882 34.4781 21.0138 34.598 21.0622 34.7064C21.1106 34.8148 21.1809 34.9097 21.2691 34.9857C21.3572 35.0616 21.4615 35.1171 21.5759 35.149C21.6903 35.1808 21.8126 35.1884 21.9357 35.1713L33.786 33.5439C33.9098 33.5293 34.0324 33.4896 34.1467 33.4271C34.261 33.3646 34.3644 33.2807 34.4509 33.1803C34.5374 33.0799 34.6051 32.9652 34.65 32.843C34.6949 32.7207 34.716 32.5935 34.7121 32.4689L34.5691 20.5235Z" fill="black" stroke="black"/>
</svg>
